<mxfile host="app.diagrams.net" modified="2024-03-04T12:49:02.120Z" agent="Mozilla/5.0 (Windows NT 10.0; Win64; x64) AppleWebKit/537.36 (KHTML, like Gecko) Chrome/122.0.0.0 Safari/537.36" etag="Xeh9LgVkPY7isTt_2Rj8" version="24.0.0" type="github">
  <diagram id="iACYzqWQ1ITx665O1Zea" name="Page-1">
    <mxGraphModel dx="1034" dy="412" grid="1" gridSize="10" guides="1" tooltips="1" connect="1" arrows="1" fold="1" page="1" pageScale="1" pageWidth="850" pageHeight="1100" math="0" shadow="0">
      <root>
        <mxCell id="0" />
        <mxCell id="1" parent="0" />
        <mxCell id="z_brWQGFtK9m3Tseu1AX-10" value="|Scene " style="swimlane;fontStyle=1;childLayout=stackLayout;horizontal=1;startSize=30;horizontalStack=0;resizeParent=1;resizeParentMax=0;resizeLast=0;collapsible=1;marginBottom=0;" parent="1" vertex="1">
          <mxGeometry x="346" y="101" width="200" height="150" as="geometry" />
        </mxCell>
        <mxCell id="z_brWQGFtK9m3Tseu1AX-11" value="|scenearea, |playarea, |viewpoint, &#xa;|initialposition, |dof, |controllers" style="text;strokeColor=none;fillColor=none;align=left;verticalAlign=middle;spacingLeft=4;spacingRight=4;overflow=hidden;points=[[0,0.5],[1,0.5]];portConstraint=eastwest;rotatable=0;" parent="z_brWQGFtK9m3Tseu1AX-10" vertex="1">
          <mxGeometry y="30" width="200" height="40" as="geometry" />
        </mxCell>
        <mxCell id="z_brWQGFtK9m3Tseu1AX-13" value="|initialize [1..1](|param*)&#xa;|animate [1..*](|param*)&#xa;|update [1..*](|param*)&#xa;|computelogic [1..*] (|param*)&#xa;|destroy[*..1](|param*)" style="text;strokeColor=none;fillColor=none;align=left;verticalAlign=middle;spacingLeft=4;spacingRight=4;overflow=hidden;points=[[0,0.5],[1,0.5]];portConstraint=eastwest;rotatable=0;" parent="z_brWQGFtK9m3Tseu1AX-10" vertex="1">
          <mxGeometry y="70" width="200" height="80" as="geometry" />
        </mxCell>
        <mxCell id="z_brWQGFtK9m3Tseu1AX-20" value="" style="endArrow=none;html=1;rounded=0;exitX=0;exitY=-0.012;exitDx=0;exitDy=0;exitPerimeter=0;entryX=1.003;entryY=-0.012;entryDx=0;entryDy=0;entryPerimeter=0;" parent="z_brWQGFtK9m3Tseu1AX-10" source="z_brWQGFtK9m3Tseu1AX-13" target="z_brWQGFtK9m3Tseu1AX-13" edge="1">
          <mxGeometry width="50" height="50" relative="1" as="geometry">
            <mxPoint x="120" y="190" as="sourcePoint" />
            <mxPoint x="170" y="140" as="targetPoint" />
          </mxGeometry>
        </mxCell>
        <mxCell id="z_brWQGFtK9m3Tseu1AX-21" value="|Viewsource" style="swimlane;fontStyle=1;childLayout=stackLayout;horizontal=1;startSize=30;horizontalStack=0;resizeParent=1;resizeParentMax=0;resizeLast=0;collapsible=1;marginBottom=0;" parent="1" vertex="1">
          <mxGeometry x="35" y="108" width="200" height="120" as="geometry" />
        </mxCell>
        <mxCell id="z_brWQGFtK9m3Tseu1AX-22" value="|xpos, |ypos, |zpos, |horizon" style="text;strokeColor=none;fillColor=none;align=left;verticalAlign=middle;spacingLeft=4;spacingRight=4;overflow=hidden;points=[[0,0.5],[1,0.5]];portConstraint=eastwest;rotatable=0;" parent="z_brWQGFtK9m3Tseu1AX-21" vertex="1">
          <mxGeometry y="30" width="200" height="30" as="geometry" />
        </mxCell>
        <mxCell id="z_brWQGFtK9m3Tseu1AX-23" value="|sceneposition [1..1] (|param*)&#xa;|updateposition [1..*] (|param*)&#xa;|lastposition [1..*] (|param*)" style="text;strokeColor=none;fillColor=none;align=left;verticalAlign=middle;spacingLeft=4;spacingRight=4;overflow=hidden;points=[[0,0.5],[1,0.5]];portConstraint=eastwest;rotatable=0;" parent="z_brWQGFtK9m3Tseu1AX-21" vertex="1">
          <mxGeometry y="60" width="200" height="60" as="geometry" />
        </mxCell>
        <mxCell id="z_brWQGFtK9m3Tseu1AX-24" value="" style="endArrow=none;html=1;rounded=0;exitX=0;exitY=-0.012;exitDx=0;exitDy=0;exitPerimeter=0;entryX=1.003;entryY=-0.012;entryDx=0;entryDy=0;entryPerimeter=0;" parent="z_brWQGFtK9m3Tseu1AX-21" source="z_brWQGFtK9m3Tseu1AX-23" target="z_brWQGFtK9m3Tseu1AX-23" edge="1">
          <mxGeometry width="50" height="50" relative="1" as="geometry">
            <mxPoint x="120" y="190" as="sourcePoint" />
            <mxPoint x="170" y="140" as="targetPoint" />
          </mxGeometry>
        </mxCell>
        <mxCell id="z_brWQGFtK9m3Tseu1AX-25" value="|Time  " style="swimlane;fontStyle=1;childLayout=stackLayout;horizontal=1;startSize=30;horizontalStack=0;resizeParent=1;resizeParentMax=0;resizeLast=0;collapsible=1;marginBottom=0;" parent="1" vertex="1">
          <mxGeometry x="636" y="210" width="200" height="100" as="geometry" />
        </mxCell>
        <mxCell id="z_brWQGFtK9m3Tseu1AX-26" value="|timestamp, |track, |nowtime" style="text;strokeColor=none;fillColor=none;align=left;verticalAlign=middle;spacingLeft=4;spacingRight=4;overflow=hidden;points=[[0,0.5],[1,0.5]];portConstraint=eastwest;rotatable=0;" parent="z_brWQGFtK9m3Tseu1AX-25" vertex="1">
          <mxGeometry y="30" width="200" height="20" as="geometry" />
        </mxCell>
        <mxCell id="z_brWQGFtK9m3Tseu1AX-27" value="|calculateroutine [1..*] (|param*)&#xa;|incrementtmp [1..*] (|param*)&#xa;|decrementtmp [1..*] (|param*)" style="text;strokeColor=none;fillColor=none;align=left;verticalAlign=middle;spacingLeft=4;spacingRight=4;overflow=hidden;points=[[0,0.5],[1,0.5]];portConstraint=eastwest;rotatable=0;" parent="z_brWQGFtK9m3Tseu1AX-25" vertex="1">
          <mxGeometry y="50" width="200" height="50" as="geometry" />
        </mxCell>
        <mxCell id="z_brWQGFtK9m3Tseu1AX-28" value="" style="endArrow=none;html=1;rounded=0;exitX=0;exitY=-0.012;exitDx=0;exitDy=0;exitPerimeter=0;entryX=1.003;entryY=-0.012;entryDx=0;entryDy=0;entryPerimeter=0;" parent="z_brWQGFtK9m3Tseu1AX-25" source="z_brWQGFtK9m3Tseu1AX-27" target="z_brWQGFtK9m3Tseu1AX-27" edge="1">
          <mxGeometry width="50" height="50" relative="1" as="geometry">
            <mxPoint x="120" y="190" as="sourcePoint" />
            <mxPoint x="170" y="140" as="targetPoint" />
          </mxGeometry>
        </mxCell>
        <mxCell id="z_brWQGFtK9m3Tseu1AX-32" value="1" style="text;html=1;align=center;verticalAlign=middle;resizable=0;points=[];autosize=1;strokeColor=none;fillColor=none;fontStyle=1" parent="1" vertex="1">
          <mxGeometry x="228" y="161" width="30" height="30" as="geometry" />
        </mxCell>
        <mxCell id="z_brWQGFtK9m3Tseu1AX-33" value="1" style="text;html=1;align=center;verticalAlign=middle;resizable=0;points=[];autosize=1;strokeColor=none;fillColor=none;fontStyle=1" parent="1" vertex="1">
          <mxGeometry x="310" y="162" width="30" height="30" as="geometry" />
        </mxCell>
        <mxCell id="z_brWQGFtK9m3Tseu1AX-41" value="" style="endArrow=open;endFill=1;endSize=12;html=1;rounded=0;entryX=-0.001;entryY=0.174;entryDx=0;entryDy=0;entryPerimeter=0;exitX=1;exitY=0.588;exitDx=0;exitDy=0;exitPerimeter=0;" parent="1" source="z_brWQGFtK9m3Tseu1AX-13" target="z_brWQGFtK9m3Tseu1AX-27" edge="1">
          <mxGeometry width="160" relative="1" as="geometry">
            <mxPoint x="546" y="269" as="sourcePoint" />
            <mxPoint x="634.5999999999999" y="269.03999999999996" as="targetPoint" />
            <Array as="points">
              <mxPoint x="606" y="218" />
              <mxPoint x="606" y="268" />
            </Array>
          </mxGeometry>
        </mxCell>
        <mxCell id="z_brWQGFtK9m3Tseu1AX-42" value="1" style="text;html=1;align=center;verticalAlign=middle;resizable=0;points=[];autosize=1;strokeColor=none;fillColor=none;fontStyle=1" parent="1" vertex="1">
          <mxGeometry x="538" y="221" width="30" height="30" as="geometry" />
        </mxCell>
        <mxCell id="z_brWQGFtK9m3Tseu1AX-43" value="|x" style="text;html=1;align=center;verticalAlign=middle;resizable=0;points=[];autosize=1;strokeColor=none;fillColor=none;fontStyle=1" parent="1" vertex="1">
          <mxGeometry x="606" y="268" width="30" height="30" as="geometry" />
        </mxCell>
        <mxCell id="z_brWQGFtK9m3Tseu1AX-44" value="" style="endArrow=open;endFill=1;endSize=12;html=1;rounded=0;entryX=0.005;entryY=0.213;entryDx=0;entryDy=0;entryPerimeter=0;" parent="1" edge="1">
          <mxGeometry width="160" relative="1" as="geometry">
            <mxPoint x="235" y="188" as="sourcePoint" />
            <mxPoint x="346" y="188.04000000000002" as="targetPoint" />
          </mxGeometry>
        </mxCell>
        <mxCell id="z_brWQGFtK9m3Tseu1AX-46" value="|Behavior " style="swimlane;fontStyle=1;childLayout=stackLayout;horizontal=1;startSize=30;horizontalStack=0;resizeParent=1;resizeParentMax=0;resizeLast=0;collapsible=1;marginBottom=0;" parent="1" vertex="1">
          <mxGeometry x="76" y="380" width="200" height="150" as="geometry" />
        </mxCell>
        <mxCell id="z_brWQGFtK9m3Tseu1AX-47" value="|behaviortype, behaviorsource,&#xa;|binitialstate, |bendstate, |depth, &#xa;|reticle, |smoothing&#xa;" style="text;strokeColor=none;fillColor=none;align=left;verticalAlign=middle;spacingLeft=4;spacingRight=4;overflow=hidden;points=[[0,0.5],[1,0.5]];portConstraint=eastwest;rotatable=0;" parent="z_brWQGFtK9m3Tseu1AX-46" vertex="1">
          <mxGeometry y="30" width="200" height="50" as="geometry" />
        </mxCell>
        <mxCell id="z_brWQGFtK9m3Tseu1AX-48" value="|onwobble [1..*] (|param*),&#xa;|ontransform [1..*] (|param*)&#xa;|onagulardrag [1..* (|param*)&#xa;|behaviorHandler [1..*] (|param*)" style="text;strokeColor=none;fillColor=none;align=left;verticalAlign=middle;spacingLeft=4;spacingRight=4;overflow=hidden;points=[[0,0.5],[1,0.5]];portConstraint=eastwest;rotatable=0;" parent="z_brWQGFtK9m3Tseu1AX-46" vertex="1">
          <mxGeometry y="80" width="200" height="70" as="geometry" />
        </mxCell>
        <mxCell id="z_brWQGFtK9m3Tseu1AX-49" value="" style="endArrow=none;html=1;rounded=0;exitX=0;exitY=-0.012;exitDx=0;exitDy=0;exitPerimeter=0;entryX=1.003;entryY=-0.012;entryDx=0;entryDy=0;entryPerimeter=0;" parent="z_brWQGFtK9m3Tseu1AX-46" source="z_brWQGFtK9m3Tseu1AX-48" target="z_brWQGFtK9m3Tseu1AX-48" edge="1">
          <mxGeometry width="50" height="50" relative="1" as="geometry">
            <mxPoint x="120" y="190" as="sourcePoint" />
            <mxPoint x="170" y="140" as="targetPoint" />
          </mxGeometry>
        </mxCell>
        <mxCell id="z_brWQGFtK9m3Tseu1AX-50" value="|State" style="swimlane;fontStyle=1;childLayout=stackLayout;horizontal=1;startSize=30;horizontalStack=0;resizeParent=1;resizeParentMax=0;resizeLast=0;collapsible=1;marginBottom=0;" parent="1" vertex="1">
          <mxGeometry x="426" y="350" width="190" height="110" as="geometry" />
        </mxCell>
        <mxCell id="z_brWQGFtK9m3Tseu1AX-51" value="|stateid, statename, |stateinitial, &#xa;|sevent, |starget, |spreference, &#xa;|statefinal&#xa;&#xa;" style="text;strokeColor=none;fillColor=none;align=left;verticalAlign=middle;spacingLeft=4;spacingRight=4;overflow=hidden;points=[[0,0.5],[1,0.5]];portConstraint=eastwest;rotatable=0;" parent="z_brWQGFtK9m3Tseu1AX-50" vertex="1">
          <mxGeometry y="30" width="190" height="50" as="geometry" />
        </mxCell>
        <mxCell id="z_brWQGFtK9m3Tseu1AX-52" value="|stateTransition[1...*] (|param*)" style="text;strokeColor=none;fillColor=none;align=left;verticalAlign=middle;spacingLeft=4;spacingRight=4;overflow=hidden;points=[[0,0.5],[1,0.5]];portConstraint=eastwest;rotatable=0;" parent="z_brWQGFtK9m3Tseu1AX-50" vertex="1">
          <mxGeometry y="80" width="190" height="30" as="geometry" />
        </mxCell>
        <mxCell id="z_brWQGFtK9m3Tseu1AX-53" value="" style="endArrow=none;html=1;rounded=0;exitX=0;exitY=-0.012;exitDx=0;exitDy=0;exitPerimeter=0;entryX=1.003;entryY=-0.012;entryDx=0;entryDy=0;entryPerimeter=0;" parent="z_brWQGFtK9m3Tseu1AX-50" source="z_brWQGFtK9m3Tseu1AX-52" target="z_brWQGFtK9m3Tseu1AX-52" edge="1">
          <mxGeometry width="50" height="50" relative="1" as="geometry">
            <mxPoint x="120" y="190" as="sourcePoint" />
            <mxPoint x="170" y="140" as="targetPoint" />
          </mxGeometry>
        </mxCell>
        <mxCell id="z_brWQGFtK9m3Tseu1AX-54" value="" style="endArrow=open;endFill=1;endSize=12;html=1;rounded=0;exitX=0.4;exitY=0.989;exitDx=0;exitDy=0;exitPerimeter=0;" parent="1" source="z_brWQGFtK9m3Tseu1AX-23" edge="1">
          <mxGeometry width="160" relative="1" as="geometry">
            <mxPoint x="117" y="320" as="sourcePoint" />
            <mxPoint x="116" y="380" as="targetPoint" />
          </mxGeometry>
        </mxCell>
        <mxCell id="z_brWQGFtK9m3Tseu1AX-55" value="&lt;font style=&quot;font-size: 9px;&quot;&gt;|accesses&lt;/font&gt;" style="text;html=1;align=center;verticalAlign=middle;resizable=0;points=[];autosize=1;strokeColor=none;fillColor=none;fontStyle=1;rotation=-90;" parent="1" vertex="1">
          <mxGeometry x="72" y="278" width="70" height="30" as="geometry" />
        </mxCell>
        <mxCell id="z_brWQGFtK9m3Tseu1AX-56" value="|x" style="text;html=1;align=center;verticalAlign=middle;resizable=0;points=[];autosize=1;strokeColor=none;fillColor=none;fontStyle=1" parent="1" vertex="1">
          <mxGeometry x="92" y="343" width="30" height="30" as="geometry" />
        </mxCell>
        <mxCell id="z_brWQGFtK9m3Tseu1AX-57" value="1" style="text;html=1;align=center;verticalAlign=middle;resizable=0;points=[];autosize=1;strokeColor=none;fillColor=none;fontStyle=1" parent="1" vertex="1">
          <mxGeometry x="92" y="222" width="30" height="30" as="geometry" />
        </mxCell>
        <mxCell id="z_brWQGFtK9m3Tseu1AX-58" value="" style="endArrow=open;endFill=1;endSize=12;html=1;rounded=0;exitX=0.997;exitY=0.142;exitDx=0;exitDy=0;exitPerimeter=0;entryX=0.248;entryY=1.015;entryDx=0;entryDy=0;entryPerimeter=0;" parent="1" source="z_brWQGFtK9m3Tseu1AX-46" target="z_brWQGFtK9m3Tseu1AX-13" edge="1">
          <mxGeometry width="160" relative="1" as="geometry">
            <mxPoint x="376" y="370" as="sourcePoint" />
            <mxPoint x="396" y="250" as="targetPoint" />
            <Array as="points">
              <mxPoint x="396" y="401" />
            </Array>
          </mxGeometry>
        </mxCell>
        <mxCell id="z_brWQGFtK9m3Tseu1AX-60" value="&lt;font style=&quot;font-size: 9px;&quot;&gt;|accesses&lt;/font&gt;" style="text;html=1;align=center;verticalAlign=middle;resizable=0;points=[];autosize=1;strokeColor=none;fillColor=none;fontStyle=1" parent="1" vertex="1">
          <mxGeometry x="252" y="161" width="70" height="30" as="geometry" />
        </mxCell>
        <mxCell id="z_brWQGFtK9m3Tseu1AX-62" value="|m" style="text;html=1;align=center;verticalAlign=middle;resizable=0;points=[];autosize=1;strokeColor=none;fillColor=none;fontStyle=1" parent="1" vertex="1">
          <mxGeometry x="267" y="373" width="40" height="30" as="geometry" />
        </mxCell>
        <mxCell id="z_brWQGFtK9m3Tseu1AX-63" value="|m" style="text;html=1;align=center;verticalAlign=middle;resizable=0;points=[];autosize=1;strokeColor=none;fillColor=none;fontStyle=1" parent="1" vertex="1">
          <mxGeometry x="366" y="268" width="40" height="30" as="geometry" />
        </mxCell>
        <mxCell id="z_brWQGFtK9m3Tseu1AX-65" value="|m" style="text;html=1;align=center;verticalAlign=middle;resizable=0;points=[];autosize=1;strokeColor=none;fillColor=none;fontStyle=1" parent="1" vertex="1">
          <mxGeometry x="186" y="356" width="40" height="30" as="geometry" />
        </mxCell>
        <mxCell id="z_brWQGFtK9m3Tseu1AX-66" value="|m" style="text;html=1;align=center;verticalAlign=middle;resizable=0;points=[];autosize=1;strokeColor=none;fillColor=none;fontStyle=1" parent="1" vertex="1">
          <mxGeometry x="186" y="310" width="40" height="30" as="geometry" />
        </mxCell>
        <mxCell id="z_brWQGFtK9m3Tseu1AX-68" value="|Requestor " style="swimlane;fontStyle=1;childLayout=stackLayout;horizontal=1;startSize=30;horizontalStack=0;resizeParent=1;resizeParentMax=0;resizeLast=0;collapsible=1;marginBottom=0;" parent="1" vertex="1">
          <mxGeometry x="676" y="380" width="150" height="80" as="geometry" />
        </mxCell>
        <mxCell id="z_brWQGFtK9m3Tseu1AX-69" value="|param 1..*" style="text;strokeColor=none;fillColor=none;align=left;verticalAlign=middle;spacingLeft=4;spacingRight=4;overflow=hidden;points=[[0,0.5],[1,0.5]];portConstraint=eastwest;rotatable=0;" parent="z_brWQGFtK9m3Tseu1AX-68" vertex="1">
          <mxGeometry y="30" width="150" height="20" as="geometry" />
        </mxCell>
        <mxCell id="z_brWQGFtK9m3Tseu1AX-70" value="|operations [1..*] (param*)" style="text;strokeColor=none;fillColor=none;align=left;verticalAlign=middle;spacingLeft=4;spacingRight=4;overflow=hidden;points=[[0,0.5],[1,0.5]];portConstraint=eastwest;rotatable=0;" parent="z_brWQGFtK9m3Tseu1AX-68" vertex="1">
          <mxGeometry y="50" width="150" height="30" as="geometry" />
        </mxCell>
        <mxCell id="z_brWQGFtK9m3Tseu1AX-71" value="" style="endArrow=none;html=1;rounded=0;exitX=0;exitY=-0.012;exitDx=0;exitDy=0;exitPerimeter=0;entryX=1.003;entryY=-0.012;entryDx=0;entryDy=0;entryPerimeter=0;" parent="z_brWQGFtK9m3Tseu1AX-68" source="z_brWQGFtK9m3Tseu1AX-70" target="z_brWQGFtK9m3Tseu1AX-70" edge="1">
          <mxGeometry width="50" height="50" relative="1" as="geometry">
            <mxPoint x="120" y="190" as="sourcePoint" />
            <mxPoint x="170" y="140" as="targetPoint" />
          </mxGeometry>
        </mxCell>
        <mxCell id="z_brWQGFtK9m3Tseu1AX-72" value="" style="endArrow=open;endFill=1;endSize=12;html=1;rounded=0;entryX=0.605;entryY=1.013;entryDx=0;entryDy=0;entryPerimeter=0;exitX=0.053;exitY=0.98;exitDx=0;exitDy=0;exitPerimeter=0;" parent="1" source="z_brWQGFtK9m3Tseu1AX-74" target="z_brWQGFtK9m3Tseu1AX-13" edge="1">
          <mxGeometry width="160" relative="1" as="geometry">
            <mxPoint x="752" y="378" as="sourcePoint" />
            <mxPoint x="466" y="258" as="targetPoint" />
            <Array as="points">
              <mxPoint x="752" y="334" />
              <mxPoint x="467" y="334" />
            </Array>
          </mxGeometry>
        </mxCell>
        <mxCell id="z_brWQGFtK9m3Tseu1AX-73" value="&lt;font style=&quot;font-size: 9px;&quot;&gt;|accesses&lt;/font&gt;" style="text;html=1;align=center;verticalAlign=middle;resizable=0;points=[];autosize=1;strokeColor=none;fillColor=none;fontStyle=1" parent="1" vertex="1">
          <mxGeometry x="538" y="308" width="70" height="30" as="geometry" />
        </mxCell>
        <mxCell id="z_brWQGFtK9m3Tseu1AX-74" value="1" style="text;html=1;align=center;verticalAlign=middle;resizable=0;points=[];autosize=1;strokeColor=none;fillColor=none;fontStyle=1" parent="1" vertex="1">
          <mxGeometry x="750" y="350" width="30" height="30" as="geometry" />
        </mxCell>
        <mxCell id="z_brWQGFtK9m3Tseu1AX-75" value="1" style="text;html=1;align=center;verticalAlign=middle;resizable=0;points=[];autosize=1;strokeColor=none;fillColor=none;fontStyle=1" parent="1" vertex="1">
          <mxGeometry x="459" y="263" width="30" height="30" as="geometry" />
        </mxCell>
        <mxCell id="z_brWQGFtK9m3Tseu1AX-76" value="|Article " style="swimlane;fontStyle=1;childLayout=stackLayout;horizontal=1;startSize=30;horizontalStack=0;resizeParent=1;resizeParentMax=0;resizeLast=0;collapsible=1;marginBottom=0;" parent="1" vertex="1">
          <mxGeometry x="346" y="530" width="200" height="130" as="geometry" />
        </mxCell>
        <mxCell id="z_brWQGFtK9m3Tseu1AX-77" value="|material, |mass, |gravity &#xa;|shadow, |dimension, |initpos" style="text;strokeColor=none;fillColor=none;align=left;verticalAlign=middle;spacingLeft=4;spacingRight=4;overflow=hidden;points=[[0,0.5],[1,0.5]];portConstraint=eastwest;rotatable=0;" parent="z_brWQGFtK9m3Tseu1AX-76" vertex="1">
          <mxGeometry y="30" width="200" height="40" as="geometry" />
        </mxCell>
        <mxCell id="z_brWQGFtK9m3Tseu1AX-78" value="|oncollision [1..*] (|param*),&#xa;|onrender [1..*] (|param*),&#xa;|operations [1..*] (|param*)" style="text;strokeColor=none;fillColor=none;align=left;verticalAlign=middle;spacingLeft=4;spacingRight=4;overflow=hidden;points=[[0,0.5],[1,0.5]];portConstraint=eastwest;rotatable=0;" parent="z_brWQGFtK9m3Tseu1AX-76" vertex="1">
          <mxGeometry y="70" width="200" height="60" as="geometry" />
        </mxCell>
        <mxCell id="z_brWQGFtK9m3Tseu1AX-79" value="" style="endArrow=none;html=1;rounded=0;exitX=0;exitY=-0.012;exitDx=0;exitDy=0;exitPerimeter=0;entryX=1.003;entryY=-0.012;entryDx=0;entryDy=0;entryPerimeter=0;" parent="z_brWQGFtK9m3Tseu1AX-76" source="z_brWQGFtK9m3Tseu1AX-78" target="z_brWQGFtK9m3Tseu1AX-78" edge="1">
          <mxGeometry width="50" height="50" relative="1" as="geometry">
            <mxPoint x="120" y="190" as="sourcePoint" />
            <mxPoint x="170" y="140" as="targetPoint" />
          </mxGeometry>
        </mxCell>
        <mxCell id="z_brWQGFtK9m3Tseu1AX-80" value="|Audio" style="swimlane;fontStyle=1;childLayout=stackLayout;horizontal=1;startSize=30;horizontalStack=0;resizeParent=1;resizeParentMax=0;resizeLast=0;collapsible=1;marginBottom=0;" parent="1" vertex="1">
          <mxGeometry x="156" y="670" width="200" height="120" as="geometry" />
        </mxCell>
        <mxCell id="z_brWQGFtK9m3Tseu1AX-81" value="|sourcetype, |noise, |init,  |inext" style="text;strokeColor=none;fillColor=none;align=left;verticalAlign=middle;spacingLeft=4;spacingRight=4;overflow=hidden;points=[[0,0.5],[1,0.5]];portConstraint=eastwest;rotatable=0;" parent="z_brWQGFtK9m3Tseu1AX-80" vertex="1">
          <mxGeometry y="30" width="200" height="30" as="geometry" />
        </mxCell>
        <mxCell id="z_brWQGFtK9m3Tseu1AX-82" value="|runsound [1..*] (|param*)&#xa;|syncsound [1..*] (|param*)&#xa;|asyncsound [1..*] (|param*)" style="text;strokeColor=none;fillColor=none;align=left;verticalAlign=middle;spacingLeft=4;spacingRight=4;overflow=hidden;points=[[0,0.5],[1,0.5]];portConstraint=eastwest;rotatable=0;" parent="z_brWQGFtK9m3Tseu1AX-80" vertex="1">
          <mxGeometry y="60" width="200" height="60" as="geometry" />
        </mxCell>
        <mxCell id="z_brWQGFtK9m3Tseu1AX-83" value="" style="endArrow=none;html=1;rounded=0;exitX=0;exitY=-0.012;exitDx=0;exitDy=0;exitPerimeter=0;entryX=1.003;entryY=-0.012;entryDx=0;entryDy=0;entryPerimeter=0;" parent="z_brWQGFtK9m3Tseu1AX-80" source="z_brWQGFtK9m3Tseu1AX-82" target="z_brWQGFtK9m3Tseu1AX-82" edge="1">
          <mxGeometry width="50" height="50" relative="1" as="geometry">
            <mxPoint x="120" y="190" as="sourcePoint" />
            <mxPoint x="170" y="140" as="targetPoint" />
          </mxGeometry>
        </mxCell>
        <mxCell id="z_brWQGFtK9m3Tseu1AX-84" value="|Action" style="swimlane;fontStyle=1;childLayout=stackLayout;horizontal=1;startSize=30;horizontalStack=0;resizeParent=1;resizeParentMax=0;resizeLast=0;collapsible=1;marginBottom=0;" parent="1" vertex="1">
          <mxGeometry x="506" y="670" width="190" height="130" as="geometry" />
        </mxCell>
        <mxCell id="z_brWQGFtK9m3Tseu1AX-85" value="|actiontype, |force, |interpolate, &#xa;|rotate, |motion, |locomote, &#xa;|colocate, |kinematic" style="text;strokeColor=none;fillColor=none;align=left;verticalAlign=middle;spacingLeft=4;spacingRight=4;overflow=hidden;points=[[0,0.5],[1,0.5]];portConstraint=eastwest;rotatable=0;" parent="z_brWQGFtK9m3Tseu1AX-84" vertex="1">
          <mxGeometry y="30" width="190" height="50" as="geometry" />
        </mxCell>
        <mxCell id="z_brWQGFtK9m3Tseu1AX-86" value="|eventHandler [1..*] (|param*)&#xa;|syncEvent [1..*] (|param*)&#xa;|asyncEvent [1..*] (|param*)" style="text;strokeColor=none;fillColor=none;align=left;verticalAlign=middle;spacingLeft=4;spacingRight=4;overflow=hidden;points=[[0,0.5],[1,0.5]];portConstraint=eastwest;rotatable=0;" parent="z_brWQGFtK9m3Tseu1AX-84" vertex="1">
          <mxGeometry y="80" width="190" height="50" as="geometry" />
        </mxCell>
        <mxCell id="z_brWQGFtK9m3Tseu1AX-87" value="" style="endArrow=none;html=1;rounded=0;exitX=0;exitY=-0.012;exitDx=0;exitDy=0;exitPerimeter=0;entryX=1.003;entryY=-0.012;entryDx=0;entryDy=0;entryPerimeter=0;" parent="z_brWQGFtK9m3Tseu1AX-84" source="z_brWQGFtK9m3Tseu1AX-86" target="z_brWQGFtK9m3Tseu1AX-86" edge="1">
          <mxGeometry width="50" height="50" relative="1" as="geometry">
            <mxPoint x="120" y="190" as="sourcePoint" />
            <mxPoint x="170" y="140" as="targetPoint" />
          </mxGeometry>
        </mxCell>
        <mxCell id="z_brWQGFtK9m3Tseu1AX-88" value="" style="endArrow=diamondThin;endFill=1;endSize=24;html=1;rounded=0;" parent="1" edge="1">
          <mxGeometry width="160" relative="1" as="geometry">
            <mxPoint x="436" y="530" as="sourcePoint" />
            <mxPoint x="276" y="490" as="targetPoint" />
            <Array as="points">
              <mxPoint x="436" y="490" />
            </Array>
          </mxGeometry>
        </mxCell>
        <mxCell id="z_brWQGFtK9m3Tseu1AX-89" value="&lt;font style=&quot;font-size: 9px;&quot;&gt;|accesses&lt;/font&gt;" style="text;html=1;align=center;verticalAlign=middle;resizable=0;points=[];autosize=1;strokeColor=none;fillColor=none;fontStyle=1" parent="1" vertex="1">
          <mxGeometry x="341" y="466" width="70" height="30" as="geometry" />
        </mxCell>
        <mxCell id="z_brWQGFtK9m3Tseu1AX-90" value="|m" style="text;html=1;align=center;verticalAlign=middle;resizable=0;points=[];autosize=1;strokeColor=none;fillColor=none;fontStyle=1" parent="1" vertex="1">
          <mxGeometry x="429" y="503" width="40" height="30" as="geometry" />
        </mxCell>
        <mxCell id="z_brWQGFtK9m3Tseu1AX-91" value="1" style="text;html=1;align=center;verticalAlign=middle;resizable=0;points=[];autosize=1;strokeColor=none;fillColor=none;fontStyle=1" parent="1" vertex="1">
          <mxGeometry x="287" y="465" width="30" height="30" as="geometry" />
        </mxCell>
        <mxCell id="z_brWQGFtK9m3Tseu1AX-93" value="&lt;font style=&quot;font-size: 9px;&quot;&gt;|Syncwith&lt;/font&gt;" style="text;html=1;align=center;verticalAlign=middle;resizable=0;points=[];autosize=1;strokeColor=none;fillColor=none;fontStyle=1" parent="1" vertex="1">
          <mxGeometry x="546" y="192" width="70" height="30" as="geometry" />
        </mxCell>
        <mxCell id="z_brWQGFtK9m3Tseu1AX-96" value="&lt;font style=&quot;font-size: 9px;&quot;&gt;|Validateswith&lt;/font&gt;" style="text;html=1;align=center;verticalAlign=middle;resizable=0;points=[];autosize=1;strokeColor=none;fillColor=none;fontStyle=1" parent="1" vertex="1">
          <mxGeometry x="218" y="328" width="80" height="30" as="geometry" />
        </mxCell>
        <mxCell id="z_brWQGFtK9m3Tseu1AX-98" value="" style="endArrow=open;endFill=1;endSize=12;html=1;rounded=0;fontSize=9;exitX=0.126;exitY=0.985;exitDx=0;exitDy=0;exitPerimeter=0;" parent="1" source="z_brWQGFtK9m3Tseu1AX-70" edge="1">
          <mxGeometry width="160" relative="1" as="geometry">
            <mxPoint x="336" y="660" as="sourcePoint" />
            <mxPoint x="546" y="550" as="targetPoint" />
            <Array as="points">
              <mxPoint x="695" y="550" />
            </Array>
          </mxGeometry>
        </mxCell>
        <mxCell id="z_brWQGFtK9m3Tseu1AX-99" value="" style="endArrow=open;endFill=1;endSize=12;html=1;rounded=0;fontSize=9;entryX=1;entryY=0.5;entryDx=0;entryDy=0;" parent="1" target="z_brWQGFtK9m3Tseu1AX-84" edge="1">
          <mxGeometry width="160" relative="1" as="geometry">
            <mxPoint x="741" y="460" as="sourcePoint" />
            <mxPoint x="676" y="700" as="targetPoint" />
            <Array as="points">
              <mxPoint x="741" y="735" />
            </Array>
          </mxGeometry>
        </mxCell>
        <mxCell id="z_brWQGFtK9m3Tseu1AX-100" value="" style="endArrow=open;endFill=1;endSize=12;html=1;rounded=0;fontSize=9;" parent="1" edge="1">
          <mxGeometry width="160" relative="1" as="geometry">
            <mxPoint x="776" y="460" as="sourcePoint" />
            <mxPoint x="235" y="790" as="targetPoint" />
            <Array as="points">
              <mxPoint x="776" y="820" />
              <mxPoint x="235" y="820" />
            </Array>
          </mxGeometry>
        </mxCell>
        <mxCell id="z_brWQGFtK9m3Tseu1AX-101" value="" style="endArrow=open;endFill=1;endSize=12;html=1;rounded=0;fontSize=9;entryX=0.306;entryY=1.002;entryDx=0;entryDy=0;entryPerimeter=0;" parent="1" target="z_brWQGFtK9m3Tseu1AX-48" edge="1">
          <mxGeometry width="160" relative="1" as="geometry">
            <mxPoint x="806" y="460" as="sourcePoint" />
            <mxPoint x="136" y="550" as="targetPoint" />
            <Array as="points">
              <mxPoint x="806" y="860" />
              <mxPoint x="136" y="860" />
            </Array>
          </mxGeometry>
        </mxCell>
        <mxCell id="z_brWQGFtK9m3Tseu1AX-102" value="" style="endArrow=diamondThin;endFill=1;endSize=24;html=1;rounded=0;fontSize=9;" parent="1" edge="1">
          <mxGeometry width="160" relative="1" as="geometry">
            <mxPoint x="356" y="740" as="sourcePoint" />
            <mxPoint x="506" y="740" as="targetPoint" />
          </mxGeometry>
        </mxCell>
        <mxCell id="z_brWQGFtK9m3Tseu1AX-103" value="" style="endArrow=diamondThin;endFill=1;endSize=24;html=1;rounded=0;fontSize=9;exitX=0.392;exitY=-0.003;exitDx=0;exitDy=0;exitPerimeter=0;" parent="1" source="z_brWQGFtK9m3Tseu1AX-80" edge="1">
          <mxGeometry width="160" relative="1" as="geometry">
            <mxPoint x="336" y="660" as="sourcePoint" />
            <mxPoint x="346" y="580" as="targetPoint" />
            <Array as="points">
              <mxPoint x="234" y="580" />
            </Array>
          </mxGeometry>
        </mxCell>
        <mxCell id="z_brWQGFtK9m3Tseu1AX-104" value="" style="endArrow=diamondThin;endFill=1;endSize=24;html=1;rounded=0;fontSize=9;" parent="1" edge="1">
          <mxGeometry width="160" relative="1" as="geometry">
            <mxPoint x="606" y="670" as="sourcePoint" />
            <mxPoint x="546" y="600" as="targetPoint" />
            <Array as="points">
              <mxPoint x="606" y="600" />
            </Array>
          </mxGeometry>
        </mxCell>
        <mxCell id="z_brWQGFtK9m3Tseu1AX-105" value="&lt;font style=&quot;font-size: 9px;&quot;&gt;|accesses&lt;/font&gt;" style="text;html=1;align=center;verticalAlign=middle;resizable=0;points=[];autosize=1;strokeColor=none;fillColor=none;fontStyle=1" parent="1" vertex="1">
          <mxGeometry x="616" y="526" width="70" height="30" as="geometry" />
        </mxCell>
        <mxCell id="z_brWQGFtK9m3Tseu1AX-106" value="&lt;font style=&quot;font-size: 9px;&quot;&gt;|Impartswith&lt;/font&gt;" style="text;html=1;align=center;verticalAlign=middle;resizable=0;points=[];autosize=1;strokeColor=none;fillColor=none;fontStyle=1" parent="1" vertex="1">
          <mxGeometry x="212" y="556" width="80" height="30" as="geometry" />
        </mxCell>
        <mxCell id="z_brWQGFtK9m3Tseu1AX-108" value="&lt;font style=&quot;font-size: 9px;&quot;&gt;|Impartswith&lt;/font&gt;" style="text;html=1;align=center;verticalAlign=middle;resizable=0;points=[];autosize=1;strokeColor=none;fillColor=none;fontStyle=1" parent="1" vertex="1">
          <mxGeometry x="386" y="714" width="80" height="30" as="geometry" />
        </mxCell>
        <mxCell id="z_brWQGFtK9m3Tseu1AX-109" value="&lt;font style=&quot;font-size: 9px;&quot;&gt;|accesses&lt;/font&gt;" style="text;html=1;align=center;verticalAlign=middle;resizable=0;points=[];autosize=1;strokeColor=none;fillColor=none;fontStyle=1" parent="1" vertex="1">
          <mxGeometry x="421" y="796" width="70" height="30" as="geometry" />
        </mxCell>
        <mxCell id="z_brWQGFtK9m3Tseu1AX-110" value="&lt;font style=&quot;font-size: 9px;&quot;&gt;|accesses&lt;/font&gt;" style="text;html=1;align=center;verticalAlign=middle;resizable=0;points=[];autosize=1;strokeColor=none;fillColor=none;fontStyle=1" parent="1" vertex="1">
          <mxGeometry x="486" y="836" width="70" height="30" as="geometry" />
        </mxCell>
        <mxCell id="z_brWQGFtK9m3Tseu1AX-111" value="&lt;font style=&quot;font-size: 9px;&quot;&gt;|accesses&lt;/font&gt;" style="text;html=1;align=center;verticalAlign=middle;resizable=0;points=[];autosize=1;strokeColor=none;fillColor=none;fontStyle=1" parent="1" vertex="1">
          <mxGeometry x="682" y="586" width="70" height="30" as="geometry" />
        </mxCell>
        <mxCell id="z_brWQGFtK9m3Tseu1AX-117" value="|x" style="text;html=1;align=center;verticalAlign=middle;resizable=0;points=[];autosize=1;strokeColor=none;fillColor=none;fontStyle=1" parent="1" vertex="1">
          <mxGeometry x="211" y="646" width="30" height="30" as="geometry" />
        </mxCell>
        <mxCell id="z_brWQGFtK9m3Tseu1AX-118" value="|x" style="text;html=1;align=center;verticalAlign=middle;resizable=0;points=[];autosize=1;strokeColor=none;fillColor=none;fontStyle=1" parent="1" vertex="1">
          <mxGeometry x="349" y="706" width="30" height="30" as="geometry" />
        </mxCell>
        <mxCell id="z_brWQGFtK9m3Tseu1AX-120" value="|m" style="text;html=1;align=center;verticalAlign=middle;resizable=0;points=[];autosize=1;strokeColor=none;fillColor=none;fontStyle=1" parent="1" vertex="1">
          <mxGeometry x="664" y="465" width="40" height="30" as="geometry" />
        </mxCell>
        <mxCell id="z_brWQGFtK9m3Tseu1AX-121" value="|m" style="text;html=1;align=center;verticalAlign=middle;resizable=0;points=[];autosize=1;strokeColor=none;fillColor=none;fontStyle=1" parent="1" vertex="1">
          <mxGeometry x="712" y="465" width="40" height="30" as="geometry" />
        </mxCell>
        <mxCell id="z_brWQGFtK9m3Tseu1AX-123" value="|m" style="text;html=1;align=center;verticalAlign=middle;resizable=0;points=[];autosize=1;strokeColor=none;fillColor=none;fontStyle=1" parent="1" vertex="1">
          <mxGeometry x="745" y="465" width="40" height="30" as="geometry" />
        </mxCell>
        <mxCell id="z_brWQGFtK9m3Tseu1AX-124" value="|m" style="text;html=1;align=center;verticalAlign=middle;resizable=0;points=[];autosize=1;strokeColor=none;fillColor=none;fontStyle=1" parent="1" vertex="1">
          <mxGeometry x="777" y="466" width="40" height="30" as="geometry" />
        </mxCell>
        <mxCell id="z_brWQGFtK9m3Tseu1AX-125" value="1" style="text;html=1;align=center;verticalAlign=middle;resizable=0;points=[];autosize=1;strokeColor=none;fillColor=none;fontStyle=1" parent="1" vertex="1">
          <mxGeometry x="298" y="556" width="30" height="30" as="geometry" />
        </mxCell>
        <mxCell id="z_brWQGFtK9m3Tseu1AX-126" value="1" style="text;html=1;align=center;verticalAlign=middle;resizable=0;points=[];autosize=1;strokeColor=none;fillColor=none;fontStyle=1" parent="1" vertex="1">
          <mxGeometry x="566" y="578" width="30" height="30" as="geometry" />
        </mxCell>
        <mxCell id="z_brWQGFtK9m3Tseu1AX-127" value="|n" style="text;html=1;align=center;verticalAlign=middle;resizable=0;points=[];autosize=1;strokeColor=none;fillColor=none;fontStyle=1" parent="1" vertex="1">
          <mxGeometry x="551" y="520" width="30" height="30" as="geometry" />
        </mxCell>
        <mxCell id="z_brWQGFtK9m3Tseu1AX-128" value="|n" style="text;html=1;align=center;verticalAlign=middle;resizable=0;points=[];autosize=1;strokeColor=none;fillColor=none;fontStyle=1" parent="1" vertex="1">
          <mxGeometry x="717" y="700" width="30" height="30" as="geometry" />
        </mxCell>
        <mxCell id="z_brWQGFtK9m3Tseu1AX-130" value="|n" style="text;html=1;align=center;verticalAlign=middle;resizable=0;points=[];autosize=1;strokeColor=none;fillColor=none;fontStyle=1" parent="1" vertex="1">
          <mxGeometry x="233" y="795" width="30" height="30" as="geometry" />
        </mxCell>
        <mxCell id="z_brWQGFtK9m3Tseu1AX-131" value="|n" style="text;html=1;align=center;verticalAlign=middle;resizable=0;points=[];autosize=1;strokeColor=none;fillColor=none;fontStyle=1" parent="1" vertex="1">
          <mxGeometry x="131" y="540" width="30" height="30" as="geometry" />
        </mxCell>
        <mxCell id="z_brWQGFtK9m3Tseu1AX-132" value="&lt;div style=&quot;text-align: left&quot;&gt;&lt;span style=&quot;font-weight: normal;&quot;&gt;&lt;span style=&quot;background-color: initial; font-size: x-small;&quot;&gt;|m.lower &amp;gt;0&lt;/span&gt;&lt;br&gt;&lt;/span&gt;&lt;/div&gt;&lt;div style=&quot;text-align: left&quot;&gt;&lt;font style=&quot;font-weight: normal;&quot; size=&quot;1&quot;&gt;|n.lower &amp;gt;0&lt;/font&gt;&lt;/div&gt;&lt;div style=&quot;text-align: left&quot;&gt;&lt;font style=&quot;font-weight: normal;&quot; size=&quot;1&quot;&gt;|x.lower &amp;gt;0&lt;/font&gt;&lt;/div&gt;" style="shape=note;whiteSpace=wrap;html=1;backgroundOutline=1;darkOpacity=0.05;fontStyle=1" parent="1" vertex="1">
          <mxGeometry x="11" y="614" width="120" height="46" as="geometry" />
        </mxCell>
        <mxCell id="z_brWQGFtK9m3Tseu1AX-136" value="|x" style="text;html=1;align=center;verticalAlign=middle;resizable=0;points=[];autosize=1;strokeColor=none;fillColor=none;fontStyle=1" parent="1" vertex="1">
          <mxGeometry x="598" y="646" width="30" height="30" as="geometry" />
        </mxCell>
        <mxCell id="z_brWQGFtK9m3Tseu1AX-137" value="&lt;font style=&quot;font-size: 9px;&quot;&gt;|accesses&lt;/font&gt;" style="text;html=1;align=center;verticalAlign=middle;resizable=0;points=[];autosize=1;strokeColor=none;fillColor=none;fontStyle=1" parent="1" vertex="1">
          <mxGeometry x="595" y="611" width="70" height="30" as="geometry" />
        </mxCell>
        <mxCell id="z_brWQGFtK9m3Tseu1AX-138" value="1" style="text;html=1;align=center;verticalAlign=middle;resizable=0;points=[];autosize=1;strokeColor=none;fillColor=none;fontStyle=1" parent="1" vertex="1">
          <mxGeometry x="473" y="709" width="30" height="30" as="geometry" />
        </mxCell>
        <mxCell id="z_brWQGFtK9m3Tseu1AX-140" value="&lt;font style=&quot;font-size: 9px;&quot;&gt;|RendersInto&lt;/font&gt;" style="text;html=1;align=center;verticalAlign=middle;resizable=0;points=[];autosize=1;strokeColor=none;fillColor=none;fontStyle=1" parent="1" vertex="1">
          <mxGeometry x="319" y="373" width="80" height="30" as="geometry" />
        </mxCell>
        <mxCell id="kDkBGoHCpGmHFSLJgTcn-1" value="|Logger" style="swimlane;fontStyle=1;childLayout=stackLayout;horizontal=1;startSize=30;horizontalStack=0;resizeParent=1;resizeParentMax=0;resizeLast=0;collapsible=1;marginBottom=0;" parent="1" vertex="1">
          <mxGeometry x="636" y="92" width="200" height="100" as="geometry" />
        </mxCell>
        <mxCell id="kDkBGoHCpGmHFSLJgTcn-2" value="|timestamp, |track, |nowtime" style="text;strokeColor=none;fillColor=none;align=left;verticalAlign=middle;spacingLeft=4;spacingRight=4;overflow=hidden;points=[[0,0.5],[1,0.5]];portConstraint=eastwest;rotatable=0;" parent="kDkBGoHCpGmHFSLJgTcn-1" vertex="1">
          <mxGeometry y="30" width="200" height="20" as="geometry" />
        </mxCell>
        <mxCell id="kDkBGoHCpGmHFSLJgTcn-3" value="|calculateroutine [1..*] (|param*)&#xa;|incrementtmp [1..*] (|param*)&#xa;|decrementtmp [1..*] (|param*)" style="text;strokeColor=none;fillColor=none;align=left;verticalAlign=middle;spacingLeft=4;spacingRight=4;overflow=hidden;points=[[0,0.5],[1,0.5]];portConstraint=eastwest;rotatable=0;" parent="kDkBGoHCpGmHFSLJgTcn-1" vertex="1">
          <mxGeometry y="50" width="200" height="50" as="geometry" />
        </mxCell>
        <mxCell id="kDkBGoHCpGmHFSLJgTcn-4" value="" style="endArrow=none;html=1;rounded=0;exitX=0;exitY=-0.012;exitDx=0;exitDy=0;exitPerimeter=0;entryX=1.003;entryY=-0.012;entryDx=0;entryDy=0;entryPerimeter=0;" parent="kDkBGoHCpGmHFSLJgTcn-1" source="kDkBGoHCpGmHFSLJgTcn-3" target="kDkBGoHCpGmHFSLJgTcn-3" edge="1">
          <mxGeometry width="50" height="50" relative="1" as="geometry">
            <mxPoint x="120" y="190" as="sourcePoint" />
            <mxPoint x="170" y="140" as="targetPoint" />
          </mxGeometry>
        </mxCell>
        <mxCell id="kDkBGoHCpGmHFSLJgTcn-7" value="|Physics " style="swimlane;fontStyle=1;childLayout=stackLayout;horizontal=1;startSize=30;horizontalStack=0;resizeParent=1;resizeParentMax=0;resizeLast=0;collapsible=1;marginBottom=0;" parent="1" vertex="1">
          <mxGeometry x="173" y="238" width="150" height="80" as="geometry" />
        </mxCell>
        <mxCell id="kDkBGoHCpGmHFSLJgTcn-8" value="|param 1..*" style="text;strokeColor=none;fillColor=none;align=left;verticalAlign=middle;spacingLeft=4;spacingRight=4;overflow=hidden;points=[[0,0.5],[1,0.5]];portConstraint=eastwest;rotatable=0;" parent="kDkBGoHCpGmHFSLJgTcn-7" vertex="1">
          <mxGeometry y="30" width="150" height="20" as="geometry" />
        </mxCell>
        <mxCell id="kDkBGoHCpGmHFSLJgTcn-9" value="|operations [1..*] (param*)" style="text;strokeColor=none;fillColor=none;align=left;verticalAlign=middle;spacingLeft=4;spacingRight=4;overflow=hidden;points=[[0,0.5],[1,0.5]];portConstraint=eastwest;rotatable=0;" parent="kDkBGoHCpGmHFSLJgTcn-7" vertex="1">
          <mxGeometry y="50" width="150" height="30" as="geometry" />
        </mxCell>
        <mxCell id="kDkBGoHCpGmHFSLJgTcn-10" value="" style="endArrow=none;html=1;rounded=0;exitX=0;exitY=-0.012;exitDx=0;exitDy=0;exitPerimeter=0;entryX=1.003;entryY=-0.012;entryDx=0;entryDy=0;entryPerimeter=0;" parent="kDkBGoHCpGmHFSLJgTcn-7" source="kDkBGoHCpGmHFSLJgTcn-9" target="kDkBGoHCpGmHFSLJgTcn-9" edge="1">
          <mxGeometry width="50" height="50" relative="1" as="geometry">
            <mxPoint x="120" y="190" as="sourcePoint" />
            <mxPoint x="170" y="140" as="targetPoint" />
          </mxGeometry>
        </mxCell>
        <mxCell id="kDkBGoHCpGmHFSLJgTcn-20" value="" style="endArrow=open;endFill=1;endSize=12;html=1;rounded=0;exitX=0.352;exitY=0.978;exitDx=0;exitDy=0;exitPerimeter=0;" parent="1" source="kDkBGoHCpGmHFSLJgTcn-9" edge="1">
          <mxGeometry width="160" relative="1" as="geometry">
            <mxPoint x="225.5" y="320" as="sourcePoint" />
            <mxPoint x="226" y="380" as="targetPoint" />
          </mxGeometry>
        </mxCell>
        <mxCell id="kDkBGoHCpGmHFSLJgTcn-26" value="" style="endArrow=open;endFill=1;endSize=12;html=1;rounded=0;entryX=0.999;entryY=0.183;entryDx=0;entryDy=0;entryPerimeter=0;" parent="1" target="z_brWQGFtK9m3Tseu1AX-13" edge="1">
          <mxGeometry width="160" relative="1" as="geometry">
            <mxPoint x="636" y="148" as="sourcePoint" />
            <mxPoint x="636" y="228" as="targetPoint" />
            <Array as="points">
              <mxPoint x="576" y="148" />
              <mxPoint x="576" y="168" />
              <mxPoint x="576" y="185" />
            </Array>
          </mxGeometry>
        </mxCell>
        <mxCell id="kDkBGoHCpGmHFSLJgTcn-28" value="|m" style="text;html=1;align=center;verticalAlign=middle;resizable=0;points=[];autosize=1;strokeColor=none;fillColor=none;fontStyle=1" parent="1" vertex="1">
          <mxGeometry x="538" y="153" width="40" height="30" as="geometry" />
        </mxCell>
        <mxCell id="kDkBGoHCpGmHFSLJgTcn-29" value="|m" style="text;html=1;align=center;verticalAlign=middle;resizable=0;points=[];autosize=1;strokeColor=none;fillColor=none;fontStyle=1" parent="1" vertex="1">
          <mxGeometry x="603" y="118" width="40" height="30" as="geometry" />
        </mxCell>
        <mxCell id="kDkBGoHCpGmHFSLJgTcn-30" value="&lt;font style=&quot;font-size: 9px;&quot;&gt;|accesses&lt;/font&gt;" style="text;html=1;align=center;verticalAlign=middle;resizable=0;points=[];autosize=1;strokeColor=none;fillColor=none;fontStyle=1" parent="1" vertex="1">
          <mxGeometry x="566" y="144" width="70" height="30" as="geometry" />
        </mxCell>
        <mxCell id="kDkBGoHCpGmHFSLJgTcn-31" value="" style="endArrow=diamondThin;endFill=1;endSize=24;html=1;rounded=0;fontSize=9;entryX=0.8;entryY=0.008;entryDx=0;entryDy=0;entryPerimeter=0;exitX=0.423;exitY=1.022;exitDx=0;exitDy=0;exitPerimeter=0;" parent="1" edge="1">
          <mxGeometry width="160" relative="1" as="geometry">
            <mxPoint x="506.37" y="459.65999999999997" as="sourcePoint" />
            <mxPoint x="506" y="530.04" as="targetPoint" />
            <Array as="points" />
          </mxGeometry>
        </mxCell>
        <mxCell id="kDkBGoHCpGmHFSLJgTcn-32" value="&lt;font style=&quot;font-size: 9px;&quot;&gt;|accesses&lt;/font&gt;" style="text;html=1;align=center;verticalAlign=middle;resizable=0;points=[];autosize=1;strokeColor=none;fillColor=none;fontStyle=1" parent="1" vertex="1">
          <mxGeometry x="498" y="473" width="70" height="30" as="geometry" />
        </mxCell>
        <mxCell id="kDkBGoHCpGmHFSLJgTcn-33" value="|x" style="text;html=1;align=center;verticalAlign=middle;resizable=0;points=[];autosize=1;strokeColor=none;fillColor=none;fontStyle=1" parent="1" vertex="1">
          <mxGeometry x="476" y="455" width="30" height="30" as="geometry" />
        </mxCell>
        <mxCell id="kDkBGoHCpGmHFSLJgTcn-34" value="1" style="text;html=1;align=center;verticalAlign=middle;resizable=0;points=[];autosize=1;strokeColor=none;fillColor=none;fontStyle=1" parent="1" vertex="1">
          <mxGeometry x="473" y="503" width="30" height="30" as="geometry" />
        </mxCell>
        <mxCell id="kDkBGoHCpGmHFSLJgTcn-35" value="" style="endArrow=diamondThin;endFill=1;endSize=24;html=1;rounded=0;fontSize=9;entryX=0.49;entryY=1.05;entryDx=0;entryDy=0;entryPerimeter=0;" parent="1" edge="1">
          <mxGeometry width="160" relative="1" as="geometry">
            <mxPoint x="436" y="348" as="sourcePoint" />
            <mxPoint x="436" y="251" as="targetPoint" />
            <Array as="points" />
          </mxGeometry>
        </mxCell>
        <mxCell id="kDkBGoHCpGmHFSLJgTcn-36" value="&lt;font style=&quot;font-size: 9px;&quot;&gt;|accesses&lt;/font&gt;" style="text;html=1;align=center;verticalAlign=middle;resizable=0;points=[];autosize=1;strokeColor=none;fillColor=none;fontStyle=1;rotation=-90;" parent="1" vertex="1">
          <mxGeometry x="391" y="298" width="70" height="30" as="geometry" />
        </mxCell>
        <mxCell id="kDkBGoHCpGmHFSLJgTcn-37" value="|x" style="text;html=1;align=center;verticalAlign=middle;resizable=0;points=[];autosize=1;strokeColor=none;fillColor=none;fontStyle=1" parent="1" vertex="1">
          <mxGeometry x="429" y="326" width="30" height="30" as="geometry" />
        </mxCell>
        <mxCell id="kDkBGoHCpGmHFSLJgTcn-38" value="1" style="text;html=1;align=center;verticalAlign=middle;resizable=0;points=[];autosize=1;strokeColor=none;fillColor=none;fontStyle=1" parent="1" vertex="1">
          <mxGeometry x="429" y="268" width="30" height="30" as="geometry" />
        </mxCell>
      </root>
    </mxGraphModel>
  </diagram>
</mxfile>
